<svg xmlns="http://www.w3.org/2000/svg" version="1.1" xmlns:xlink="http://www.w3.org/1999/xlink" width="2000" height="236" viewBox="0 0 2000 236"><svg xml:space="preserve" width="2000" height="236" data-version="2" data-id="lg_PRKAo81tCVm3VoosJQ" viewBox="0 0 409 236" x="0" y="0"><rect width="100%" height="100%" fill="transparent"></rect><path fill="#ffffff" d="M44.68 198.33v-64.88H59.7v64.88Zm-40.45 0v-64.88H19.2v64.88Zm10.88-26.43v-12.47H49.1v12.47Z"></path><rect width="55.47" height="64.88" x="-27.73" y="-32.44" fill="none" rx="0" ry="0" transform="translate(32.47 166.39)"></rect><path fill="#ffffff" d="M72.76 198.33v-64.88h15.28v64.88Z"></path><rect width="15.28" height="64.88" x="-7.64" y="-32.44" fill="none" rx="0" ry="0" transform="translate(80.9 166.39)"></rect><path fill="#ffffff" d="M101.06 198.33v-64.88h24.89q7.91 0 13.4 1.75 5.48 1.75 8.32 5.85 2.85 4.09 2.85 11.14 0 5.6-2.21 10.06-2.21 4.46-7.08 7.05-4.86 2.6-12.74 2.6l5.78-5.46 8.83 13.01q2.05 3 4.37 6.44 2.32 3.43 4.52 6.69 2.21 3.25 3.89 5.75h-16.97q-2.45-3.82-4.73-7.32-2.27-3.51-4.41-6.83l-10.51-16.56 8.87 6.78h-15.06v-10.69h10.83q3.64 0 6.12-.89t3.75-3.03q1.28-2.14 1.28-5.87 0-2.77-.82-4.48-.82-1.7-2.21-2.66-1.39-.96-3.09-1.27-1.71-.32-3.44-.32h-20.38l10.64-9.38v62.52Z"></path><rect width="54.82" height="64.88" x="-27.41" y="-32.44" fill="none" rx="0" ry="0" transform="translate(128.97 166.39)"></rect><path fill="#ffffff" d="M163.98 198.33v-64.88h43.09v12.24h-35.58l7.14-9.88v60.16l-6.18-9.88h35.03v12.24Zm11.24-27.03v-11.37h30.4v11.37H187.1Z"></path><rect width="43.5" height="64.88" x="-21.75" y="-32.44" fill="none" rx="0" ry="0" transform="translate(186.23 166.39)"></rect><path fill="#ffffff" d="M258.76 198.33v-64.88h15.02v64.88Zm-40.45 0v-64.88h14.97v64.88Zm10.88-26.43v-12.47h33.98v12.47Z"></path><rect width="55.47" height="64.88" x="-27.73" y="-32.44" fill="none" rx="0" ry="0" transform="translate(246.54 166.39)"></rect><path fill="#ffffff" d="M313.41 199.56q-9.92 0-15.95-3.19-6.03-3.18-8.76-9.07-2.73-5.89-2.73-13.9v-39.95h14.92v39.13q0 4.64 1.28 7.92 1.27 3.27 4.02 5 2.76 1.73 7.17 1.73 4.46 0 7.17-1.73 2.7-1.73 3.91-5 1.21-3.28 1.21-7.97v-39.08h14.92v39.99q0 8.01-2.87 13.88-2.86 5.87-8.87 9.05-6.01 3.19-15.42 3.19"></path><rect width="54.6" height="66.11" x="-27.3" y="-33.05" fill="none" rx="0" ry="0" transform="translate(313.77 167)"></rect><path fill="#ffffff" d="M375.6 198.33h-22.79v-64.88h26.25q6.65 0 11.13 1.07t7.14 3.05q2.66 1.98 3.82 4.71 1.16 2.73 1.16 6.09 0 4.14-1.54 7.19-1.55 3.05-4.24 5.03-2.68 1.98-6.05 2.84v1.14q3.87.86 6.9 2.68 3.02 1.82 4.71 4.96 1.68 3.14 1.68 7.92 0 4.1-1.3 7.44-1.29 3.34-4.46 5.76-3.16 2.41-8.62 3.7-5.46 1.3-13.79 1.3m-8.09-11.24h9.46q3.91 0 6.44-.95 2.52-.96 3.71-2.78 1.18-1.82 1.18-4.5 0-4.05-2.73-5.99-2.73-1.93-7.87-1.93h-13.74v-10.51h13.1q3.32 0 5.51-1.07 2.18-1.07 3.25-2.89 1.07-1.82 1.07-4.23 0-3.78-2.23-5.71-2.23-1.93-6.78-1.93h-10.37v36.37z"></path><rect width="50.96" height="64.88" x="-25.48" y="-32.44" fill="none" rx="0" ry="0" transform="translate(378.79 166.39)"></rect><path fill="#ffffff" d="M113.44 228.49h-5.77v-18.54h6.81q1.63 0 2.77.3 1.13.31 1.85.87.71.57 1.05 1.38.34.8.34 1.82 0 1.18-.43 2.06-.43.89-1.16 1.47-.74.59-1.67.87v.24q.96.18 1.82.67.85.5 1.39 1.41.53.92.53 2.35 0 1.09-.37 2.02-.37.93-1.22 1.62-.85.69-2.3 1.07-1.45.39-3.64.39m-3.47-1.95h3.66q1.76 0 2.85-.41 1.08-.4 1.57-1.14.49-.74.49-1.77 0-1.7-1.2-2.44-1.19-.73-3.35-.73h-4.54v-1.89h4.54q1.43 0 2.33-.46.91-.47 1.32-1.23.42-.75.42-1.65 0-1.52-.94-2.22-.95-.7-2.81-.7h-4.34v12.43z"></path><rect width="13.3" height="18.54" x="-6.65" y="-9.27" fill="none" rx="0" ry="0" transform="translate(114.82 219.72)"></rect><path fill="#ffffff" d="m129.03 221.24-4.04-6.85q-.65-1.09-1.25-2.11-.6-1.02-1.38-2.33h2.69q.72 1.25 1.22 2.14.51.9.97 1.7.45.8 1 1.76l1.79 3.16h.24l1.74-3.04q.58-1.03 1.06-1.86.47-.83.99-1.74.52-.9 1.22-2.12h2.64q-.66 1.13-1.32 2.24-.65 1.11-1.29 2.19l-4.04 6.86Zm-.05 7.25v-9.21h2.35v9.21Z"></path><rect width="15.56" height="18.54" x="-7.78" y="-9.27" fill="none" rx="0" ry="0" transform="translate(130.64 219.72)"></rect><path fill="#ffffff" d="M143.97 232.59q.75-.84 1.28-1.7.54-.86.82-1.86.28-1 .28-2.31v-16.77h2.36v16.99q0 1.05-.19 1.9-.18.85-.51 1.54-.32.68-.75 1.22-.42.54-.87.99Z"></path><rect width="4.74" height="22.64" x="-2.37" y="-11.32" fill="none" rx="0" ry="0" transform="translate(146.84 221.77)"></rect><path fill="#ffffff" d="M151.91 228.49q.55-1.5 1.14-3.15.59-1.65 1.14-3.13l2.3-6.37q.61-1.72 1.11-3.1.51-1.39 1.02-2.79h3.09q.51 1.43 1 2.81.5 1.37 1.11 3.09l2.29 6.38q.54 1.54 1.12 3.15.58 1.62 1.11 3.11h-2.44l-1.15-3.35q-.59-1.72-1.11-3.25l-3.38-9.82h-.22l-3.41 9.73q-.56 1.59-1.16 3.32-.6 1.74-1.18 3.37Zm3.43-4.66.21-1.84h9.39l.17 1.84Z"></path><rect width="16.43" height="18.54" x="-8.21" y="-9.27" fill="none" rx="0" ry="0" transform="translate(160.63 219.72)"></rect><path fill="#ffffff" d="m174.18 221.24-4.04-6.85q-.65-1.09-1.25-2.11-.6-1.02-1.38-2.33h2.69q.72 1.25 1.22 2.14.51.9.97 1.7.45.8 1 1.76l1.79 3.16h.23l1.75-3.04q.58-1.03 1.06-1.86.47-.83.99-1.74.52-.9 1.22-2.12h2.64q-.66 1.13-1.32 2.24-.65 1.11-1.29 2.19l-4.04 6.86Zm-.05 7.25v-9.21h2.35v9.21Z"></path><rect width="15.56" height="18.54" x="-7.78" y="-9.27" fill="none" rx="0" ry="0" transform="translate(175.79 219.72)"></rect><path fill="#ffffff" d="M186.15 228.49v-18.54h6.52q2.14 0 3.8.61 1.67.62 2.81 1.81 1.13 1.19 1.73 2.89.59 1.71.59 3.88 0 1.96-.52 3.66-.52 1.69-1.66 2.97-1.14 1.29-2.98 2-1.84.72-4.48.72h-3.92zm2.36-1.97h3.47q2.65 0 4.22-.97 1.57-.96 2.26-2.65.69-1.68.69-3.8 0-1.63-.41-2.95-.41-1.33-1.24-2.28-.84-.95-2.15-1.45-1.31-.51-3.09-.51h-3.75v12.4z"></path><rect width="15.45" height="18.54" x="-7.72" y="-9.27" fill="none" rx="0" ry="0" transform="translate(194.38 219.72)"></rect><path fill="#ffffff" d="M205.3 228.49v-18.54h11.52v2.01H206.3l1.3-1.67v17.84l-1.17-1.66h10.42v2.02Zm1.8-8.42v-1.96h9.2v1.96h-5.62Z"></path><rect width="11.55" height="18.54" x="-5.78" y="-9.27" fill="none" rx="0" ry="0" transform="translate(211.57 219.72)"></rect><path fill="#ffffff" d="M225.67 228.49q-.49-1.4-1.06-2.97-.56-1.57-1.04-2.91l-2.08-5.81q-.35-1-.78-2.17-.42-1.16-.85-2.37-.43-1.21-.83-2.31h2.61q.68 1.99 1.46 4.25.78 2.26 1.45 4.25l2.62 7.6h.22l2.64-7.64q.69-2.03 1.44-4.21.75-2.19 1.46-4.25h2.52q-.39 1.12-.81 2.3-.43 1.19-.84 2.36-.42 1.16-.77 2.16l-2.08 5.85-1.03 2.9q-.54 1.55-1.05 2.97Z"></path><rect width="16.42" height="18.54" x="-8.21" y="-9.27" fill="none" rx="0" ry="0" transform="translate(227.74 219.72)"></rect><path fill="#ffffff" d="M243.44 228.77q-1.15 0-2.33-.21-1.18-.22-2.17-.54-1-.31-1.61-.64l.22-2.22q.88.48 1.82.84.94.35 1.92.55.98.19 2.01.19 1.16 0 2.09-.32.93-.31 1.47-1.01.54-.69.54-1.83 0-.98-.56-1.63-.56-.64-1.62-1.11-1.06-.47-2.57-.93-1.77-.56-3.02-1.21-1.24-.65-1.9-1.61-.66-.95-.66-2.44 0-1.44.69-2.58.68-1.15 2.03-1.8 1.35-.66 3.35-.66.84 0 1.65.12.81.11 1.55.31.74.21 1.35.45.62.25 1.04.51l-.23 2.24q-.79-.54-1.68-.89-.88-.36-1.75-.54-.87-.17-1.61-.17-1.06 0-1.94.31-.88.31-1.42.95-.54.65-.54 1.66 0 .89.45 1.47.46.59 1.44 1.05.98.46 2.53.95 2.23.71 3.51 1.43 1.28.72 1.82 1.67t.54 2.32q0 1.53-.67 2.72-.67 1.2-2.08 1.9-1.42.7-3.66.7"></path><rect width="12.78" height="19.16" x="-6.39" y="-9.58" fill="none" rx="0" ry="0" transform="translate(243.96 219.69)"></rect><path fill="#ffffff" d="m257.7 221.24-4.04-6.85q-.65-1.09-1.25-2.11-.59-1.02-1.37-2.33h2.69q.71 1.25 1.22 2.14.51.9.96 1.7.46.8 1 1.76l1.8 3.16h.23l1.74-3.04q.59-1.03 1.06-1.86.48-.83 1-1.74.52-.9 1.22-2.12h2.64q-.67 1.13-1.32 2.24l-1.3 2.19-4.04 6.86Zm-.05 7.25v-9.21h2.36v9.21Z"></path><rect width="15.56" height="18.54" x="-7.78" y="-9.27" fill="none" rx="0" ry="0" transform="translate(259.32 219.72)"></rect><path fill="#ffffff" d="M274.44 228.49v-18.2l.93 1.75h-7.29v-2.09h15.05v2.09h-7.29l.95-1.75v18.2Z"></path><rect width="15.05" height="18.54" x="-7.53" y="-9.27" fill="none" rx="0" ry="0" transform="translate(276.1 219.72)"></rect><path fill="#ffffff" d="M286.34 228.49v-18.54h11.52v2.01h-10.52l1.3-1.67v17.84l-1.17-1.66h10.42v2.02Zm1.8-8.42v-1.96h9.2v1.96h-5.61Z"></path><rect width="11.55" height="18.54" x="-5.78" y="-9.27" fill="none" rx="0" ry="0" transform="translate(292.62 219.72)"></rect><path fill="#ffffff" d="M162.991 57.82c.153-8.728.33-17.455.432-26.184.016-1.256.424-1.958 1.546-2.567a11950.647 11950.647 0 0 0 46.652-25.383c1.072-.585 1.856-.514 2.863.087a13009.34 13009.34 0 0 0 45.822 27.168c1.051.62 1.39 1.318 1.37 2.51q-.506 26.259-.917 52.519c-.02 1.174-.359 1.852-1.45 2.443a8850.739 8850.739 0 0 0-46.209 25.215c-1.459.804-2.545.779-3.975-.07a8212.984 8212.984 0 0 0-44.747-26.526c-1.399-.822-1.917-1.71-1.87-3.349.232-8.62.339-17.242.49-25.869Zm78.006-16.708-61.183-1.068 28.495 52.29c10.99-17.226 21.749-34.084 32.688-51.222m2.135 1.84a692851.81 692851.81 0 0 1-31.972 50.11c1.379-.158 2.297-.224 3.197-.371 13.354-2.154 26.7-4.32 40.054-6.468 1.87-.3 1.915-.312 1.338-2.187a63945.665 63945.665 0 0 0-9.899-32.37c-.85-2.778-1.724-5.544-2.712-8.72Zm-62.076-6.021 59.242 1.034c-9.457-10.19-18.649-20.092-27.983-30.147-10.381 9.667-20.648 19.224-31.266 29.113Zm-3.211 5.452c-.236.593-.38.867-.453 1.148-3.36 12.56-6.726 25.126-10.073 37.692-.538 2.026-.5 2.02 1.5 2.526 11.545 2.903 23.088 5.817 34.632 8.713.513.129 1.046.176 1.954.324-9.257-16.939-18.32-33.503-27.56-50.409Zm80.924-7.92c-.72.263-1.213.418-1.675.623-3.438 1.523-6.838 3.128-10.318 4.544-1.315.536-1.39 1.175-1.02 2.369 3.631 11.77 7.22 23.56 10.826 35.337.363 1.18.776 2.35 1.164 3.519.07-.024.145-.054.215-.078zm-8.528 55.695c-.048-.12-.096-.247-.15-.367-1.588.255-3.182.516-4.769.764-11.388 1.818-22.77 3.648-34.163 5.434-1.09.17-1.397.51-1.14 1.625.578 2.542 1.004 5.124 1.524 7.677.342 1.67.74 3.33 1.165 5.246a100131.49 100131.49 0 0 0 37.533-20.386ZM217.716 8.924l-.21.222c.103.165.188.355.323.502 8.44 9.141 16.885 18.27 25.305 27.424.672.735 1.238.688 2.048.325 3.425-1.548 6.88-3.04 10.318-4.568.386-.17.724-.44 1.308-.8-13.211-7.806-26.148-15.455-39.092-23.105m-7.762 101.791c-.957-4.903-1.785-9.308-2.732-13.677-.099-.467-.868-.995-1.419-1.136a8125.807 8125.807 0 0 0-34.436-8.742c-.35-.087-.72-.1-1.084-.15-.02.087-.047.175-.068.262l39.739 23.45Zm-44.5-34.266.188.04c.132-.317.294-.622.381-.954 3.136-11.59 6.253-23.187 9.407-34.77.315-1.157.197-1.956-.966-2.58-1.375-.74-2.653-1.667-3.977-2.494-1.348-.84-2.709-1.661-4.269-2.618l-.757 43.376Zm2.356-45.716c2.809 1.745 5.334 3.202 7.723 4.852 1.272.876 2.059.796 3.189-.265 8.2-7.733 16.467-15.396 24.704-23.085.351-.326.665-.691.992-1.038-.074-.089-.142-.178-.215-.267a88818.254 88818.254 0 0 1-36.399 19.803Z"></path></svg></svg>